<svg xmlns="http://www.w3.org/2000/svg" version="1.1" xmlns:xlink="http://www.w3.org/1999/xlink" width="512" height="512" x="0" y="0" viewBox="0 0 24 24" style="enable-background:new 0 0 512 512" xml:space="preserve" class=""><g><g data-name="Layer 2"><rect width="5.5" height="6.5" x="2.25" y="14.25" rx=".75" fill="#022249" opacity="1" data-original="#000000" class=""></rect><rect width="5.5" height="9.5" x="9.25" y="11.25" rx=".75" fill="#022249" opacity="1" data-original="#000000" class=""></rect><rect width="5.5" height="13.5" x="16.25" y="7.25" rx=".75" fill="#022249" opacity="1" data-original="#000000" class=""></rect><path d="M22 22.75H2a.75.75 0 0 1 0-1.5h20a.75.75 0 0 1 0 1.5zM19 5.75a.76.76 0 0 1-.75-.75V2.75H16a.75.75 0 0 1 0-1.5h3a.76.76 0 0 1 .75.75v3a.76.76 0 0 1-.75.75z" fill="#022249" opacity="1" data-original="#000000" class=""></path><path d="M5 10.75a.75.75 0 0 1-.48-1.33l6-5a.76.76 0 0 1 1 0L13.05 6l5.47-4.57a.75.75 0 1 1 1 1.16l-6 5a.75.75 0 0 1-1 0L11 6l-5.52 4.58a.78.78 0 0 1-.48.17z" fill="#022249" opacity="1" data-original="#000000" class=""></path></g></g></svg>