<svg xmlns="http://www.w3.org/2000/svg" version="1.1" xmlns:xlink="http://www.w3.org/1999/xlink" width="512" height="512" x="0" y="0" viewBox="0 0 24 24" style="enable-background:new 0 0 512 512" xml:space="preserve" class=""><g><path d="M23 22V9.5a.5.5 0 0 0-.303-.46l-7-3A.5.5 0 0 0 15 6.5V22h-1V.75a.75.75 0 0 0-1.017-.701l-10.5 4A.75.75 0 0 0 2 4.75V22H1a1 1 0 1 0 0 2h22a1 1 0 1 0 0-2zm-3-9.25a.75.75 0 0 1 1.5 0v1.5a.75.75 0 0 1-1.5 0zm0 6a.75.75 0 0 1 1.5 0v1.5a.75.75 0 0 1-1.5 0zm-3.5-6a.75.75 0 0 1 1.5 0v1.5a.75.75 0 0 1-1.5 0zm0 6a.75.75 0 0 1 1.5 0v1.5a.75.75 0 0 1-1.5 0zm-7-12a.75.75 0 0 1 1.5 0v1.5a.75.75 0 0 1-1.5 0zm0 6a.75.75 0 0 1 1.5 0v1.5a.75.75 0 0 1-1.5 0zm0 6a.75.75 0 0 1 1.5 0v1.5a.75.75 0 0 1-1.5 0zM5 6.75a.75.75 0 0 1 1.5 0v1.5a.75.75 0 0 1-1.5 0zm0 6a.75.75 0 0 1 1.5 0v1.5a.75.75 0 0 1-1.5 0zm0 6a.75.75 0 0 1 1.5 0v1.5a.75.75 0 0 1-1.5 0z" fill="#022249" opacity="1" data-original="#000000" class=""></path></g></svg>