<svg xmlns="http://www.w3.org/2000/svg" version="1.1" xmlns:xlink="http://www.w3.org/1999/xlink" width="512" height="512" x="0" y="0" viewBox="0 0 500 500" style="enable-background:new 0 0 512 512" xml:space="preserve" class=""><g><path fill-rule="evenodd" d="M350.301 213.349v-16.393c0-8.953-10.948-13.755-17.473-7.23-1.86 1.86-3.015 4.42-3.015 7.23v16.393a6.948 6.948 0 0 1-6.948 6.948h-32.927a.878.878 0 0 0-.873.745c-4.81 30.172-36.407 48.458-65.019 37.515a.88.88 0 0 0-1.082.384l-12.551 21.74a.886.886 0 0 0 .322 1.207l8.089 4.699.023.014a24.066 24.066 0 0 1 10.561 14.239c3.453 12.887-4.163 26.072-17.055 29.526a24.027 24.027 0 0 1-17.642-2.046 6.83 6.83 0 0 1-1.043-.574l.008-.013-7.042-4.066a.886.886 0 0 0-1.208.324l-12.17 21.079c-.126.218-.153.452-.082.693s.222.422.446.537a148.288 148.288 0 0 0 12.954 5.845c15.982 6.306 33.332 9.93 51.498 10.315a.844.844 0 0 0 .517-.154l3.79-2.587a.86.86 0 0 0 .201-.189 115.13 115.13 0 0 1 8.848-10.139.827.827 0 0 0 .172-.25l21.94-47.706c6.659-14.479 23.953-20.877 38.432-14.218 14.48 6.659 20.878 23.953 14.219 38.432l-5.557 12.084a.875.875 0 0 0 .224 1.038.874.874 0 0 0 1.058.075c16.591-10.705 32.092-25.559 42.931-41.925a137.108 137.108 0 0 0 10.582-19.708l7.767-17.828a.794.794 0 0 0 .031-.081 148.666 148.666 0 0 0 7.012-38.075.854.854 0 0 0-.242-.655.856.856 0 0 0-.641-.275h-32.104a6.95 6.95 0 0 1-6.951-6.95zM248.304 371.43l.006-.027h.013a102.952 102.952 0 0 1 12.8-15.24.845.845 0 0 0 .184-.262l22.811-49.601c3.982-8.66 14.327-12.487 22.987-8.504 8.66 3.983 12.487 14.327 8.504 22.987l-19.064 41.453c-.151.328-.095.694.147.962s.6.361.942.244c38.296-13.084 69.565-41.328 86.653-77.575a.88.88 0 0 1 1.02-.48c.41.106.685.474.665.896-3.272 72.439-62.26 135.944-164.469 178.654a.88.88 0 0 1-1.108-.375l-23.687-41.027a.886.886 0 0 1 .324-1.208l36.613-21.138a.85.85 0 0 0 .398-.492c3.505-10.738 8.244-20.506 14.261-29.267zm127.059-243.769-.006.002-.002-.003a102.972 102.972 0 0 1-19.624-3.467.858.858 0 0 0-.319-.029l-54.361 5.046c-9.491.881-17.977-6.164-18.858-15.655-.881-9.491 6.164-17.977 15.655-18.858l45.374-4.211a.87.87 0 0 0 .76-.609.869.869 0 0 0-.259-.938c-29.768-26.012-69.238-39.691-110.488-36.242a.878.878 0 0 1-.926-.644.879.879 0 0 1 .444-1.024c64.374-33.413 148.882-14.085 236.99 53.088a.88.88 0 0 1 .23 1.147l-23.687 41.027a.886.886 0 0 1-1.208.324l-36.613-21.138a.855.855 0 0 0-.625-.099c-11.052 2.334-21.881 3.114-32.477 2.283zm-274.08 13.267.009.008-.003.005a102.892 102.892 0 0 1 6.806 18.722.84.84 0 0 0 .135.291l31.55 44.556c5.508 7.779 3.65 18.65-4.129 24.159-7.779 5.508-18.651 3.651-24.159-4.129l-26.357-37.222c-.209-.295-.554-.429-.907-.353s-.613.34-.682.694c-7.888 40.234 1.155 81.202 23.885 113.841a.878.878 0 0 1-.093 1.124.88.88 0 0 1-1.109.129C45.1 263.71 19.582 180.86 33.703 70.965a.88.88 0 0 1 .878-.773h47.374c.487 0 .884.397.884.884v42.277c0 .227.075.422.226.591 7.548 8.405 13.638 17.392 18.218 26.984zm105.23-1.664a6.918 6.918 0 0 0-9.445-2.551l-14.197 8.197c-2.431 1.403-5.239 1.679-7.803.991-9.074-2.431-10.108-14.378-2.496-18.773l14.197-8.197a6.918 6.918 0 0 0 2.551-9.445l-16.08-27.851c-.126-.218-.153-.452-.082-.693s.222-.423.446-.537c42.528-21.692 93.314-21.584 135.736.195a.873.873 0 0 1 .464.953.872.872 0 0 1-.787.714L296.8 83.401c-15.661 1.454-27.356 15.542-25.902 31.203 1.453 15.66 15.542 27.355 31.202 25.902l52.337-4.857a.86.86 0 0 1 .303.024 114.395 114.395 0 0 0 13.445 2.63c.181.024.33.092.468.214l3.248 2.868c.08.071.138.143.19.237a148.13 148.13 0 0 1 15.707 43.641 148.99 148.99 0 0 1 2.436 20.209.858.858 0 0 1-.242.655.856.856 0 0 1-.641.275h-24.269a.886.886 0 0 1-.884-.884v-8.561c0-6.646-2.714-12.683-7.086-17.055-15.266-15.266-41.195-4.226-41.195 17.055v8.561a.886.886 0 0 1-.884.884h-25.094a.88.88 0 0 1-.873-.745c-4.796-30.069-36.345-48.482-65.019-37.514a.878.878 0 0 1-1.081-.384zm-2.969 104.332a48.698 48.698 0 0 0 7.236 7.289.88.88 0 0 1 .208 1.128l-16.245 28.137-.013.022c-2.2 3.569-1.085 7.851 2.311 9.815l14.197 8.197.007-.012c2.453 1.466 4.047 3.611 4.754 6.249.581 2.168.438 5.632-.776 7.396l.005.003c-1.365 2.6-3.788 4.421-6.459 5.137-2.167.581-5.632.437-7.395-.775l-.003.004a11.18 11.18 0 0 1-.401-.219l-13.809-7.972-.022-.013c-3.569-2.2-7.851-1.085-9.815 2.311l-16.071 27.834c-.126.218-.315.359-.56.418s-.477.018-.688-.119a149.981 149.981 0 0 1-20.552-16.095c-2.249-2.102-7.691-7.496-9.532-9.752a.698.698 0 0 1-.025-.032l-10.629-14.334a137.442 137.442 0 0 1-12.398-20.125c-8.199-16.651-13.877-38.076-14.512-57.804-.013-.396.226-.74.602-.866s.774.004 1.003.327l8.116 11.462c9.187 12.974 27.262 16.063 40.236 6.876 12.973-9.187 16.062-27.262 6.876-40.236l-30.356-42.87a.819.819 0 0 1-.13-.275 114.647 114.647 0 0 0-4.403-12.851.837.837 0 0 1-.059-.226l-.628-5.023a.85.85 0 0 1 .122-.569 149.727 149.727 0 0 1 22.101-28.143 149.804 149.804 0 0 1 24.186-19.612.858.858 0 0 1 .688-.119c.245.059.434.2.56.418l12.159 21.059a.886.886 0 0 1-.324 1.208l-7.428 4.288a24.07 24.07 0 0 0-11.247 14.652c-5.545 20.696 16.817 37.813 35.334 27.123l7.452-4.302a.886.886 0 0 1 1.208.324l12.563 21.76a.878.878 0 0 1-.208 1.127c-20.564 16.733-23.907 46.997-7.236 67.78z" clip-rule="evenodd" fill="#022249" opacity="1" data-original="#000000" class=""></path></g></svg>